<svg xmlns="http://www.w3.org/2000/svg" viewBox="0 0 48 48" width="48" height="48">
<defs>
<linearGradient id="tile" x1="0" y1="0" x2="0" y2="1">
  <stop offset="0" stop-color="#1b2740"/><stop offset="1" stop-color="#0b1120"/>
</linearGradient>
<linearGradient id="scene" x1="0" y1="0" x2="0" y2="1">
  <stop offset="0" stop-color="#ffffff" stop-opacity="0.14"/>
  <stop offset="0.14" stop-color="#ffffff" stop-opacity="0.035"/>
  <stop offset="0.55" stop-color="#ffffff" stop-opacity="0"/>
</linearGradient>
<linearGradient id="edge" x1="0" y1="0" x2="0" y2="1">
  <stop offset="0" stop-color="#ffffff" stop-opacity="0.28"/>
  <stop offset="0.5" stop-color="#ffffff" stop-opacity="0.05"/>
  <stop offset="1" stop-color="#ffffff" stop-opacity="0.10"/>
</linearGradient>
<linearGradient id="g" x1="0" y1="0" x2="1" y2="1">
  <stop offset="0" stop-color="#5eead4"/><stop offset="0.55" stop-color="#38bdf8"/><stop offset="1" stop-color="#7dd3fc"/>
</linearGradient>
<linearGradient id="gd" x1="0" y1="0" x2="1" y2="1">
  <stop offset="0" stop-color="#14b8a6"/><stop offset="1" stop-color="#2563eb"/>
</linearGradient>
<radialGradient id="glow" cx="0.5" cy="1" r="0.9">
  <stop offset="0" stop-color="#38bdf8" stop-opacity="0.30"/>
  <stop offset="0.6" stop-color="#38bdf8" stop-opacity="0.05"/>
  <stop offset="1" stop-color="#38bdf8" stop-opacity="0"/>
</radialGradient>
</defs>
<rect x="2.5" y="2.5" width="43" height="43" rx="11.5" fill="url(#tile)"/>
<ellipse cx="24" cy="47" rx="26" ry="17" fill="url(#glow)"/>
<rect x="2.5" y="2.5" width="43" height="43" rx="11.5" fill="url(#scene)"/>
<rect x="3.4" y="3.4" width="41.2" height="41.2" rx="10.8" fill="none" stroke="url(#edge)" stroke-width="1.2"/>
<rect x="8" y="12" width="32" height="24" rx="5.5" fill="#1d2c49"/>
<path d="M14 24a8 8 0 0 1 8-8" fill="none" stroke="url(#g)" stroke-width="2.6" stroke-linecap="round"/>
<path d="M34 24a8 8 0 0 1-8 8" fill="none" stroke="url(#g)" stroke-width="2.6" stroke-linecap="round"/>
<path d="M14 16.5v4M12 18.5h4M34 31.5v4M32 33.5h4M34 21.5v4M32 23.5h4M14 26.5v4M12 28.5h4" stroke="#f0c46a" stroke-width="1.8" stroke-linecap="round"/>
</svg>